<?xml version="1.0" encoding="UTF-8"?>
<svg id="_레이어_2" data-name="레이어 2" xmlns="http://www.w3.org/2000/svg" viewBox="0 0 94.51 21.5">
  <defs>
    <style>
      .cls-1 {
        fill: #fff;
      }

      .cls-2 {
        fill: #004ac0;
      }

      .cls-3 {
        fill: #0059da;
      }
    </style>
  </defs>
  <g id="Layer_1" data-name="Layer 1">
    <g>
      <g>
        <path class="cls-1" d="m36.12,13.9l3.17-9.13h2.46l-4.27,11.2h-2.76l-4.25-11.2h2.48l3.17,9.13Z"/>
        <path class="cls-1" d="m47.17,5.07c.56-.32,1.23-.48,2-.48v2.4h-.59c-.91,0-1.6.23-2.06.69-.47.46-.7,1.26-.7,2.4v5.9h-2.32V4.77h2.32v1.63c.34-.57.79-1.01,1.35-1.33Z"/>
        <path class="cls-1" d="m51.43,2.86c-.28-.28-.43-.64-.43-1.06s.14-.77.43-1.06c.28-.28.64-.43,1.06-.43s.75.14,1.04.43c.28.28.43.64.43,1.06s-.14.77-.43,1.06c-.28.28-.63.43-1.04.43s-.77-.14-1.06-.43Zm2.2,1.91v11.2h-2.32V4.77h2.32Z"/>
        <path class="cls-1" d="m56.6,7.33c.47-.87,1.1-1.54,1.91-2.02.81-.48,1.7-.72,2.69-.72.73,0,1.45.16,2.17.48.71.32,1.28.74,1.7,1.27V.93h2.34v15.04h-2.34v-1.69c-.38.54-.9.99-1.58,1.34-.67.35-1.44.53-2.31.53-.98,0-1.87-.25-2.67-.74-.81-.49-1.44-1.19-1.91-2.07-.47-.89-.7-1.89-.7-3.02s.23-2.12.7-2.99Zm7.99,1.02c-.32-.57-.74-1-1.25-1.3-.52-.3-1.07-.45-1.67-.45s-1.15.15-1.67.44c-.52.29-.93.72-1.25,1.28-.32.56-.48,1.23-.48,2s.16,1.45.48,2.03c.32.58.74,1.03,1.26,1.33.52.31,1.07.46,1.66.46s1.15-.15,1.67-.45c.51-.3.93-.74,1.25-1.31.32-.58.48-1.25.48-2.02s-.16-1.44-.48-2.01Z"/>
        <path class="cls-1" d="m77.28,5.11c.67.35,1.2.78,1.58,1.29v-1.63h2.34v11.38c0,1.03-.22,1.95-.65,2.75-.43.81-1.06,1.44-1.88,1.9-.82.46-1.8.69-2.94.69-1.52,0-2.78-.36-3.78-1.07-1-.71-1.57-1.68-1.71-2.9h2.3c.18.58.55,1.05,1.13,1.41.58.36,1.26.54,2.06.54.94,0,1.69-.28,2.27-.85.58-.57.86-1.4.86-2.48v-1.87c-.39.53-.93.97-1.6,1.33s-1.43.54-2.29.54c-.98,0-1.87-.25-2.67-.74-.81-.49-1.44-1.19-1.91-2.07-.47-.89-.7-1.89-.7-3.02s.23-2.12.7-2.99c.47-.87,1.1-1.54,1.91-2.02.81-.48,1.7-.72,2.67-.72.87,0,1.64.17,2.31.52Zm1.1,3.24c-.32-.57-.74-1-1.25-1.3-.52-.3-1.07-.45-1.67-.45s-1.15.15-1.67.44c-.52.29-.93.72-1.25,1.28-.32.56-.48,1.23-.48,2s.16,1.45.48,2.03c.32.58.74,1.03,1.26,1.33.52.31,1.07.46,1.66.46s1.15-.15,1.67-.45c.51-.3.93-.74,1.25-1.31.32-.58.48-1.25.48-2.02s-.16-1.44-.48-2.01Z"/>
        <path class="cls-1" d="m94.43,11.24h-8.56c.07.89.4,1.61,1,2.15.6.54,1.33.81,2.2.81,1.25,0,2.13-.52,2.64-1.57h2.5c-.34,1.03-.95,1.87-1.84,2.53-.89.66-1.99.99-3.3.99-1.07,0-2.03-.24-2.88-.72-.85-.48-1.51-1.16-1.99-2.03-.48-.87-.72-1.89-.72-3.04s.23-2.17.7-3.04c.47-.87,1.12-1.55,1.97-2.02.85-.47,1.82-.71,2.92-.71s2,.23,2.83.69c.83.46,1.47,1.11,1.93,1.94.46.83.69,1.79.69,2.88,0,.42-.03.8-.08,1.14Zm-2.34-1.87c-.01-.85-.32-1.54-.91-2.05-.6-.52-1.34-.77-2.22-.77-.8,0-1.48.25-2.05.76-.57.51-.91,1.2-1.02,2.06h6.2Z"/>
      </g>
      <g>
        <path class="cls-2" d="m6.97,19.87c-1,0-1.89-.66-2.17-1.62L.08,2.31C-.27,1.15.6,0,1.8,0h8.16c1.18,0,2.03,1.11,1.74,2.25l-2.73,10.43c-.19.71.35,1.4,1.08,1.4h.31s0,5.79,0,5.79h-3.38Z"/>
        <path class="cls-3" d="m13.76,1.33l-1.43,5.38c-.14.53.12,1.08.61,1.3l2.3,1.07c.81.38.87,1.51.11,1.97l-4.98,3.02-1.54,5.79h9.5c1,0,1.89-.66,2.17-1.62l4.72-15.95c.34-1.15-.52-2.31-1.72-2.31h-7.99c-.81,0-1.53.55-1.73,1.33Z"/>
      </g>
    </g>
  </g>
</svg>